<svg width="256" height="213" viewBox="0 0 256 213" fill="none" xmlns="http://www.w3.org/2000/svg">
<path d="M0 3C0 1.34315 1.34315 0 3 0H253C254.657 0 256 1.34315 256 3V210C256 211.657 254.657 213 253 213H3C1.34315 213 0 211.657 0 210V3Z" fill="#E5E7EB"/>
<path d="M100.583 142.25C98.4292 142.25 96.5844 141.484 95.0491 139.951C93.5164 138.416 92.75 136.571 92.75 134.417V79.5833C92.75 77.4292 93.5164 75.5844 95.0491 74.0491C96.5844 72.5164 98.4292 71.75 100.583 71.75H155.417C157.571 71.75 159.416 72.5164 160.951 74.0491C162.484 75.5844 163.25 77.4292 163.25 79.5833V134.417C163.25 136.571 162.484 138.416 160.951 139.951C159.416 141.484 157.571 142.25 155.417 142.25H100.583ZM104.5 126.583H151.5L136.812 107L125.062 122.667L116.25 110.917L104.5 126.583Z" fill="#6D7280"/>
</svg>
